<svg width="139.968994" height="125.862061" viewBox="0 0 139.969 125.862" fill="none" xmlns="http://www.w3.org/2000/svg" xmlns:xlink="http://www.w3.org/1999/xlink">
	<desc>
			Created with Pixso.
	</desc>
	<defs/>
	<path id="Vector" d="M114.515 0L88.3406 14.9966L88.3904 54.0381L51.9585 14.4868L25.2544 0.0100098L0 14.2869L0 95.4788L25.5244 109.726L51.7185 95.229L51.7185 88.5703L87.2908 125.862L139.969 95.4487L139.969 14.2869L114.515 0ZM90.7898 17.7961L115.454 31.9429L115.454 83.4116L90.8298 56.6875L90.7898 17.7961ZM2.44946 17.0962L24.8044 30.0034L86.4209 96.2087L86.4409 121.403L24.3845 56.3374L24.3845 106.276L2.44946 94.0491L2.44946 17.0962ZM49.269 86.2209L49.269 93.7993L26.7141 106.276L26.7141 62.3962L49.4089 86.2209L49.269 86.2209ZM137.639 94.0591L88.8704 122.203L88.8503 95.2588L26.3342 28.0938L3.6792 15.0166L25.2944 2.78931L50.4688 16.4363L117.904 89.6301L117.904 30.5332L92.0195 15.6965L114.585 2.7793L137.639 15.6965L137.639 94.0591Z" fill="#FFFFFF" fill-opacity="1.000000" fill-rule="nonzero"/>
</svg>
