<svg viewBox="0 0 18.375 18.375" fill="none" xmlns="http://www.w3.org/2000/svg" xmlns:xlink="http://www.w3.org/1999/xlink">
	<path id="" d="M9.20801 4.4502C6.58301 4.4502 4.49121 6.58301 4.49121 9.16699C4.49121 11.792 6.58301 13.8838 9.20801 13.8838C11.792 13.8838 13.9248 11.792 13.9248 9.16699C13.9248 6.58301 11.792 4.4502 9.20801 4.4502ZM9.20801 12.2432C7.52637 12.2432 6.13184 10.8896 6.13184 9.16699C6.13184 7.48535 7.48535 6.13184 9.20801 6.13184C10.8896 6.13184 12.2432 7.48535 12.2432 9.16699C12.2432 10.8896 10.8896 12.2432 9.20801 12.2432ZM15.1963 4.28613C15.1963 3.6709 14.7041 3.17871 14.0889 3.17871C13.4736 3.17871 12.9814 3.6709 12.9814 4.28613C12.9814 4.90137 13.4736 5.39355 14.0889 5.39355C14.7041 5.39355 15.1963 4.90137 15.1963 4.28613ZM18.3135 5.39355C18.2314 3.91699 17.9033 2.60449 16.8369 1.53809C15.7705 0.47168 14.458 0.143555 12.9814 0.0615234C11.4639 -0.0205078 6.91113 -0.0205078 5.39355 0.0615234C3.91699 0.143555 2.64551 0.47168 1.53809 1.53809C0.47168 2.60449 0.143555 3.91699 0.0615234 5.39355C-0.0205078 6.91113 -0.0205078 11.4639 0.0615234 12.9814C0.143555 14.458 0.47168 15.7295 1.53809 16.8369C2.64551 17.9033 3.91699 18.2314 5.39355 18.3135C6.91113 18.3955 11.4639 18.3955 12.9814 18.3135C14.458 18.2314 15.7705 17.9033 16.8369 16.8369C17.9033 15.7295 18.2314 14.458 18.3135 12.9814C18.3955 11.4639 18.3955 6.91113 18.3135 5.39355ZM16.3447 14.5811C16.0576 15.4014 15.4014 16.0166 14.6221 16.3447C13.3916 16.8369 10.5205 16.7139 9.20801 16.7139C7.85449 16.7139 4.9834 16.8369 3.79395 16.3447C2.97363 16.0166 2.3584 15.4014 2.03027 14.5811C1.53809 13.3916 1.66113 10.5205 1.66113 9.16699C1.66113 7.85449 1.53809 4.9834 2.03027 3.75293C2.3584 2.97363 2.97363 2.3584 3.79395 2.03027C4.9834 1.53809 7.85449 1.66113 9.20801 1.66113C10.5205 1.66113 13.3916 1.53809 14.6221 2.03027C15.4014 2.31738 16.0166 2.97363 16.3447 3.75293C16.8369 4.9834 16.7139 7.85449 16.7139 9.16699C16.7139 10.5205 16.8369 13.3916 16.3447 14.5811Z" fill="#FFFFFF" fill-opacity="1.000000" fill-rule="evenodd"/>
</svg>
