<svg width="200.000000" height="200.000000" viewBox="0 0 200 200" fill="none" xmlns="http://www.w3.org/2000/svg" xmlns:xlink="http://www.w3.org/1999/xlink">
	<desc>
			Created with Pixso.
	</desc>
	<defs/>
	<path id="PLAY" d="M83.4004 102.423L83.4004 100.693L85.9023 100.693C86.2806 100.693 86.5859 100.632 86.8184 100.509C87.0553 100.386 87.2285 100.217 87.3379 100.003C87.4473 99.7887 87.502 99.5426 87.502 99.2646C87.502 98.9867 87.4473 98.7269 87.3379 98.4854C87.2285 98.2393 87.0553 98.0433 86.8184 97.8975C86.5859 97.7471 86.2806 97.6719 85.9023 97.6719L84.1387 97.6719L84.1387 105.889L81.9854 105.889L81.9854 95.9355L85.9023 95.9355C86.6908 95.9355 87.3675 96.0791 87.9326 96.3662C88.4977 96.6533 88.9307 97.0475 89.2314 97.5488C89.5322 98.0456 89.6826 98.613 89.6826 99.251C89.6826 99.8981 89.5322 100.459 89.2314 100.933C88.9307 101.407 88.4977 101.773 87.9326 102.033C87.3675 102.293 86.6908 102.423 85.9023 102.423L83.4004 102.423ZM97.5098 105.889L92.5127 105.889L92.5127 104.159L97.5098 104.159L97.5098 105.889ZM93.1963 105.889L91.0498 105.889L91.0498 95.9355L93.1963 95.9355L93.1963 105.889ZM100.258 105.889L97.9678 105.889L101.666 95.9355L103.115 95.9355L102.91 97.8223L100.258 105.889ZM102.425 97.8223L102.199 95.9355L103.655 95.9355L107.374 105.889L105.084 105.889L102.425 97.8223ZM105.016 103.906L99.7383 103.906L99.7383 102.17L105.016 102.17L105.016 103.906ZM110.341 100.352L112.344 95.9355L114.682 95.9355L111.435 102.286L111.435 105.889L109.254 105.889L109.254 102.286L106 95.9355L108.345 95.9355L110.341 100.352Z" fill="#FFFFFF" fill-opacity="1.000000" fill-rule="evenodd"/>
	<path id="Vector" d="M100 199.5C45.0476 199.5 0.5 154.952 0.5 100C0.5 45.0476 45.0476 0.5 100 0.5C154.952 0.5 199.5 45.0476 199.5 100C199.5 154.952 154.952 199.5 100 199.5Z" stroke="#FFFFFF" stroke-opacity="1.000000" stroke-width="1.000000"/>
	<path id="Vector" d="M125.759 110.336L144.334 91.7603" stroke="#FFFFFF" stroke-opacity="1.000000" stroke-width="1.000000"/>
	<path id="Vector" d="M131.133 91.9604L144.268 91.9604L144.268 105.095" stroke="#FFFFFF" stroke-opacity="1.000000" stroke-width="1.000000"/>
</svg>
